<?xml version="1.0" encoding="UTF-8" standalone="no"?>
<!-- Svg Vector Icons : http://www.onlinewebfonts.com/icon -->

<svg
   xmlns:dc="http://purl.org/dc/elements/1.1/"
   xmlns:cc="http://creativecommons.org/ns#"
   xmlns:rdf="http://www.w3.org/1999/02/22-rdf-syntax-ns#"
   xmlns:svg="http://www.w3.org/2000/svg"
   xmlns="http://www.w3.org/2000/svg"
   xmlns:sodipodi="http://sodipodi.sourceforge.net/DTD/sodipodi-0.dtd"
   xmlns:inkscape="http://www.inkscape.org/namespaces/inkscape"
   version="1.1"
   x="0px"
   y="0px"
   viewBox="0 0 1000 1000"
   enable-background="new 0 0 1000 1000"
   xml:space="preserve"
   id="svg12"
   sodipodi:docname="icon_truck.svg"
   inkscape:version="0.92.3 (2405546, 2018-03-11)"><defs
   id="defs16" /><sodipodi:namedview
   pagecolor="#ffffff"
   bordercolor="#666666"
   borderopacity="1"
   objecttolerance="10"
   gridtolerance="10"
   guidetolerance="10"
   inkscape:pageopacity="0"
   inkscape:pageshadow="2"
   inkscape:window-width="1853"
   inkscape:window-height="1025"
   id="namedview14"
   showgrid="false"
   inkscape:zoom="0.6675088"
   inkscape:cx="204.89042"
   inkscape:cy="489.08921"
   inkscape:window-x="67"
   inkscape:window-y="27"
   inkscape:window-maximized="1"
   inkscape:current-layer="svg12" />
<metadata
   id="metadata2"> Svg Vector Icons : http://www.onlinewebfonts.com/icon <rdf:RDF><cc:Work
     rdf:about=""><dc:format>image/svg+xml</dc:format><dc:type
       rdf:resource="http://purl.org/dc/dcmitype/StillImage" /></cc:Work></rdf:RDF></metadata>
<path
   style="fill:#ffffff;stroke:#000000;stroke-width:1px;stroke-linecap:butt;stroke-linejoin:miter;stroke-opacity:1;fill-opacity:1"
   d="M 202.24452,277.91214 64.418626,463.67748 301.11963,492.14153 376.025,430.71912 346.06285,265.92728 Z"
   id="path847"
   inkscape:connector-curvature="0" /><path
   inkscape:connector-curvature="0"
   id="path6"
   d="m 151.12435,723.2019 c 0,45.87238 37.20137,83.07375 83.07375,83.07375 45.87237,0 83.07375,-37.20137 83.07375,-83.07375 0,-45.87237 -37.20138,-83.07375 -83.07375,-83.07375 -45.87238,0 -83.07375,37.20138 -83.07375,83.07375 z"
   style="stroke:#ffffff;stroke-width:40.37141418;stroke-miterlimit:4;stroke-dasharray:none;stroke-opacity:0.06030154" /><path
   inkscape:connector-curvature="0"
   id="path8"
   d="m 967.7,188.2 h -490 c -12.3,0 -22.3,10 -22.3,22.3 V 589.1 H 410.9 V 255 c 0,-12.5 -9.9,-22.3 -22.2,-22.3 H 210.3 c -12,0 -29,7.1 -37.4,15.9 L 14.2,462.2 C 11,473.9 10,493.8 10,506.2 v 194.1 c 0,12.3 9.9,22.4 22.1,22.4 h 67 c 0,-73.8 59.8,-133.6 133.6,-133.6 73.8,0 133.6,59.8 133.6,133.6 h 267.3 c 0,-73.8 59.8,-133.6 133.6,-133.6 73.8,0 133.6,59.8 133.6,133.6 h 66.6 c 12.5,0 22.5,-9.9 22.5,-22.1 V 655.8 210.5 C 990,198.1 980,188.2 967.7,188.2 Z m -621,244.9 c 0,12.3 -10,22.3 -22.3,22.3 H 113.2 c -12.3,0 -16.6,-8.2 -9.8,-18.2 l 80.2,-117 C 190.5,310.1 206,302 218.3,302 h 106.2 c 12.3,0 22.2,10.1 22.2,22.3 z" />
<path
   inkscape:connector-curvature="0"
   id="path6-36"
   d="m 688.45166,723.2019 c 0,45.87238 37.20137,83.07375 83.07376,83.07375 45.87237,0 83.07375,-37.20137 83.07375,-83.07375 0,-45.87237 -37.20138,-83.07375 -83.07375,-83.07375 -45.87239,0 -83.07376,37.20138 -83.07376,83.07375 z"
   style="stroke:#ffffff;stroke-width:40.37141418;stroke-miterlimit:4;stroke-dasharray:none;stroke-opacity:0.06030154" /></svg>